<?xml version="1.0" encoding="utf-8"?>
<!-- Generator: Adobe Illustrator 16.0.0, SVG Export Plug-In . SVG Version: 6.00 Build 0)  -->
<!DOCTYPE svg PUBLIC "-//W3C//DTD SVG 1.1//EN" "http://www.w3.org/Graphics/SVG/1.1/DTD/svg11.dtd">
<svg version="1.1" id="Layer_1" xmlns="http://www.w3.org/2000/svg" xmlns:xlink="http://www.w3.org/1999/xlink" x="0px" y="0px"
	 width="614.64px" height="655.37px" viewBox="0 0 614.64 655.37" enable-background="new 0 0 614.64 655.37" xml:space="preserve">
<g>
	<path fill="#EE2324" d="M598.854,65.527l-58.938-4.003V46.808c0-6.664-5.402-12.067-12.068-12.067h-59.438
		c-6.664,0-12.067,5.403-12.067,12.067v10.233c10.614,0.715,21.183,4.179,30.594,10.628c28.035,19.212,35.188,57.512,15.976,85.547
		l-10.538,15.378h35.473c6.664,0,12.067-5.403,12.067-12.067V141.81l58.938-4.002c8.878-0.604,15.771-7.98,15.771-16.88V82.405
		C614.628,73.507,607.733,66.129,598.854,65.527z"/>
	<path fill="#010101" d="M313.052,133.495c36.385,9.816,73.545-11.886,83.257-47.876c9.771-36.211-11.664-73.487-47.875-83.257
		c-36.211-9.771-73.487,11.664-83.258,47.875C255.405,86.45,276.841,123.724,313.052,133.495z"/>
	<path fill="#010101" d="M469.548,93.051c-14.019-9.604-33.169-6.028-42.773,7.987l-60.163,87.796l-99.756-1.42l60.583-15.113
		c-76.374-20.607-71.247-19.253-72.981-19.626c-0.486-32.01-26.565-63.856-65.7-76.481c-46.853-15.116-94.646,3.044-106.751,40.56
		c-7.433,23.036,0.339,48.006,18.28,67.356c-34.035,5.959-65.478,29.597-83.858,64.318c31.209,12.246,57.542,13.034,78.457,2.303
		c18.966-9.729,30.926-27.44,38.24-43.25c3.991-8.627,6.598-16.681,8.205-22.566c-24.3-12.898-34.825-37.451-28.162-58.107
		c8.236-25.525,38.804-37.595,68.316-28.076c29.596,9.55,47.105,37.679,39.03,62.707c-7.179,22.25-30.642,33.477-54.816,30.936
		c-1.739,6.251-4.363,14.259-8.184,22.938c-8.996,20.429-24.627,44.548-51.002,58.081c-31.616,16.219-66.971,11.546-99.903-1.469
		c-20.862,65.94,9.365,133.902,66.778,151.143c22.792,6.844,46.409,4.648,67.789-4.64c0.413,2.296-1.856-6.688,34.724,134.479
		l-104.894-0.549c-0.065-0.001-0.132-0.001-0.198-0.001c-20.3,0-36.81,16.403-36.916,36.729
		c-0.108,20.391,16.336,37.008,36.729,37.114l152.86,0.801c0.064,0.001,0.128,0.001,0.193,0.001
		c11.387-0.001,22.143-5.255,29.14-14.249c7.036-9.044,9.477-20.843,6.602-31.934l-34.904-134.703l105.668,15.488l20.953,134.167
		c3.148,20.167,22.053,33.93,42.177,30.781c20.146-3.146,33.929-22.028,30.782-42.177l-25.15-161.057
		c-2.496-15.988-15.113-28.488-31.125-30.835l-41.664-6.106l30.25-112.121l-90.425-25.313l116.25,1.656
		c0.147,0.001,0.294,0.003,0.44,0.003c10.138,0,19.639-4.998,25.38-13.375l69.487-101.404
		C487.141,121.806,483.564,102.656,469.548,93.051z"/>
	<path fill="#010101" d="M196.277,153.618c3.7-11.466-6.655-25.501-22.61-30.648c-16.72-5.396-32.729,0.715-36.258,11.656
		c-3.731,11.562,6.682,25.513,22.609,30.648C176.762,170.676,192.751,164.548,196.277,153.618z"/>
</g>
</svg>
