<?xml version="1.0" encoding="utf-8"?>
<!-- Generator: Adobe Illustrator 16.0.0, SVG Export Plug-In . SVG Version: 6.00 Build 0)  -->
<!DOCTYPE svg PUBLIC "-//W3C//DTD SVG 1.1//EN" "http://www.w3.org/Graphics/SVG/1.1/DTD/svg11.dtd" [
	<!ENTITY ns_extend "http://ns.adobe.com/Extensibility/1.0/">
	<!ENTITY ns_ai "http://ns.adobe.com/AdobeIllustrator/10.0/">
	<!ENTITY ns_graphs "http://ns.adobe.com/Graphs/1.0/">
	<!ENTITY ns_vars "http://ns.adobe.com/Variables/1.0/">
	<!ENTITY ns_imrep "http://ns.adobe.com/ImageReplacement/1.0/">
	<!ENTITY ns_sfw "http://ns.adobe.com/SaveForWeb/1.0/">
	<!ENTITY ns_custom "http://ns.adobe.com/GenericCustomNamespace/1.0/">
	<!ENTITY ns_adobe_xpath "http://ns.adobe.com/XPath/1.0/">
]>
<svg version="1.1" id="Capa_1" xmlns:x="&ns_extend;" xmlns:i="&ns_ai;" xmlns:graph="&ns_graphs;"
	 xmlns="http://www.w3.org/2000/svg" xmlns:xlink="http://www.w3.org/1999/xlink" x="0px" y="0px" width="70.871px"
	 height="70.871px" viewBox="0 0 70.871 70.871" enable-background="new 0 0 70.871 70.871" xml:space="preserve">
<metadata>
	<sfw  xmlns="&ns_sfw;">
		<slices></slices>
		<sliceSourceBounds  height="70.87" width="69.471" x="0.764" y="0.065" bottomLeftOrigin="true"></sliceSourceBounds>
	</sfw>
</metadata>
<g>
	<path fill="#FF0000" d="M68.389,7.406l-6.662-0.452V5.291c0-0.753-0.61-1.364-1.363-1.364h-6.719c-0.754,0-1.365,0.611-1.365,1.364
		v1.157c1.201,0.081,2.396,0.473,3.459,1.202c3.169,2.171,3.978,6.5,1.806,9.669l-1.19,1.738h4.01c0.753,0,1.363-0.611,1.363-1.364
		v-1.664l6.662-0.452c1.004-0.068,1.782-0.902,1.782-1.908V9.314C70.171,8.309,69.393,7.475,68.389,7.406z"/>
	<path fill="#FFFFFF" d="M36.083,15.089c4.112,1.109,8.313-1.343,9.41-5.411c1.104-4.093-1.318-8.307-5.411-9.411
		c-4.094-1.104-8.306,1.318-9.411,5.411C29.568,9.771,31.99,13.984,36.083,15.089z"/>
	<path fill="#FFFFFF" d="M53.773,10.518c-1.586-1.085-3.75-0.682-4.836,0.903l-6.801,9.924l-11.275-0.161l6.848-1.708
		c-8.632-2.329-8.053-2.176-8.249-2.218c-0.055-3.618-3.002-7.218-7.426-8.645C16.74,6.905,11.337,8.957,9.969,13.197
		c-0.84,2.604,0.038,5.426,2.066,7.613c-3.847,0.673-7.401,3.345-9.478,7.27c3.527,1.384,6.504,1.473,8.868,0.26
		c2.144-1.1,3.496-3.102,4.322-4.889c0.451-0.975,0.746-1.885,0.928-2.551c-2.747-1.458-3.937-4.233-3.184-6.568
		c0.931-2.885,4.386-4.25,7.722-3.173c3.345,1.079,5.324,4.259,4.412,7.088c-0.812,2.515-3.463,3.784-6.196,3.497
		c-0.196,0.707-0.493,1.612-0.925,2.593c-1.017,2.309-2.784,5.035-5.765,6.565c-3.574,1.833-7.57,1.305-11.292-0.166
		c-2.358,7.454,1.058,15.135,7.548,17.084c2.576,0.772,5.246,0.525,7.662-0.525c0.046,0.26-0.21-0.756,3.925,15.201L8.725,62.434
		c-0.007,0-0.015,0-0.022,0c-2.294,0-4.161,1.854-4.173,4.151c-0.012,2.306,1.847,4.183,4.151,4.194l17.278,0.091
		c0.007,0,0.014,0,0.021,0c1.287,0,2.503-0.595,3.294-1.611c0.795-1.021,1.071-2.354,0.746-3.608l-3.945-15.226l11.942,1.75
		l2.369,15.165c0.355,2.279,2.492,3.835,4.768,3.479c2.277-0.354,3.834-2.489,3.479-4.768l-2.843-18.203
		c-0.282-1.809-1.708-3.221-3.52-3.486l-4.709-0.688L40.984,31l-10.221-2.861l13.139,0.187c0.018,0,0.033,0,0.051,0
		c1.146,0,2.219-0.565,2.867-1.512l7.854-11.462C55.762,13.768,55.357,11.603,53.773,10.518z"/>
	<path fill="#FFFFFF" d="M22.884,17.363c0.418-1.296-0.752-2.882-2.556-3.464c-1.89-0.61-3.699,0.081-4.098,1.317
		c-0.422,1.307,0.755,2.884,2.556,3.464C20.679,19.292,22.486,18.599,22.884,17.363z"/>
</g>
</svg>
